<svg xmlns="http://www.w3.org/2000/svg" width="640" height="420" viewBox="0 0 420 260" role="img" aria-label="Front Brake Pad Set">
<defs><linearGradient id="g" x1="0" y1="0" x2="1" y2="1"><stop stop-color="#f7f1e8"/><stop offset="1" stop-color="#e6d1b3"/></linearGradient><filter id="s"><feDropShadow dx="0" dy="8" stdDeviation="7" flood-opacity=".22"/></filter></defs>
<rect width="420" height="260" rx="24" fill="url(#g)"/>
<circle cx="54" cy="48" r="34" fill="#b44a2a" opacity=".12"/><circle cx="372" cy="214" r="48" fill="#b44a2a" opacity=".12"/>
<g filter="url(#s)"><path d="M150 80 h120 a55 55 0 0 1 55 55 v0 a55 55 0 0 1-55 55H150 a55 55 0 0 1-55-55 v0 a55 55 0 0 1 55-55z" fill="#2b2b2b"/><path d="M162 102 h96 a32 32 0 0 1 0 64 h-96 a32 32 0 0 1 0-64z" fill="#8c6f4c"/><circle cx="132" cy="135" r="10" fill="#ddd"/><circle cx="288" cy="135" r="10" fill="#ddd"/></g>
<text x="28" y="232" font-family="Arial, sans-serif" font-size="18" font-weight="700" fill="#2b2118">Front Brake Pad Set</text>
</svg>