<svg xmlns="http://www.w3.org/2000/svg" width="640" height="420" viewBox="0 0 420 260" role="img" aria-label="Chain & Sprocket Kit">
<defs><linearGradient id="g" x1="0" y1="0" x2="1" y2="1"><stop stop-color="#f7f1e8"/><stop offset="1" stop-color="#e6d1b3"/></linearGradient><filter id="s"><feDropShadow dx="0" dy="8" stdDeviation="7" flood-opacity=".22"/></filter></defs>
<rect width="420" height="260" rx="24" fill="url(#g)"/>
<circle cx="54" cy="48" r="34" fill="#b44a2a" opacity=".12"/><circle cx="372" cy="214" r="48" fill="#b44a2a" opacity=".12"/>
<g filter="url(#s)"><g fill="none" stroke="#2c2c2c" stroke-width="12"><circle cx="145" cy="135" r="48"/><circle cx="280" cy="135" r="48"/></g><path d="M145 87 H280 M145 183 H280" stroke="#2c2c2c" stroke-width="15" stroke-linecap="round"/><g stroke="#c9a56b" stroke-width="4"><line x1="110" y1="84" x2="110" y2="96"/><line x1="110" y1="174" x2="110" y2="186"/><line x1="132" y1="84" x2="132" y2="96"/><line x1="132" y1="174" x2="132" y2="186"/><line x1="154" y1="84" x2="154" y2="96"/><line x1="154" y1="174" x2="154" y2="186"/><line x1="176" y1="84" x2="176" y2="96"/><line x1="176" y1="174" x2="176" y2="186"/><line x1="198" y1="84" x2="198" y2="96"/><line x1="198" y1="174" x2="198" y2="186"/><line x1="220" y1="84" x2="220" y2="96"/><line x1="220" y1="174" x2="220" y2="186"/><line x1="242" y1="84" x2="242" y2="96"/><line x1="242" y1="174" x2="242" y2="186"/><line x1="264" y1="84" x2="264" y2="96"/><line x1="264" y1="174" x2="264" y2="186"/><line x1="286" y1="84" x2="286" y2="96"/><line x1="286" y1="174" x2="286" y2="186"/><line x1="308" y1="84" x2="308" y2="96"/><line x1="308" y1="174" x2="308" y2="186"/></g></g>
<text x="28" y="232" font-family="Arial, sans-serif" font-size="18" font-weight="700" fill="#2b2118">Chain & Sprocket Kit</text>
</svg>